<?xml version="1.0" encoding="UTF-8" standalone="no"?>
<!DOCTYPE svg PUBLIC "-//W3C//DTD SVG 1.1//EN" "http://www.w3.org/Graphics/SVG/1.1/DTD/svg11.dtd">
<svg width="100%" height="100%" viewBox="0 0 168 168" version="1.1" xmlns="http://www.w3.org/2000/svg" xmlns:xlink="http://www.w3.org/1999/xlink" xml:space="preserve" xmlns:serif="http://www.serif.com/" style="fill-rule:evenodd;clip-rule:evenodd;stroke-linejoin:round;stroke-miterlimit:1.41421;">
    <g transform="matrix(1,0,0,1,14,1)">
        <path d="M10.9,97.2L59.5,48.6C65.8,42.4 69.7,33.7 69.7,24.2C69.7,14.8 65.9,6.2 59.8,0L11.2,48.6C4.9,54.8 1,63.5 1,73C1,82.5 4.8,91 10.9,97.2ZM128.6,68.8L80,117.4C73.7,123.6 69.8,132.3 69.8,141.8C69.8,151.2 73.6,159.8 79.7,166L128.3,117.4C134.6,111.2 138.5,102.5 138.5,93C138.5,83.5 134.7,75 128.6,68.8ZM128.3,48.7C134.6,42.5 138.5,33.8 138.5,24.3C138.5,14.9 134.7,6.3 128.6,0.1L11.2,117.4C4.9,123.7 1,132.3 1,141.9C1,151.3 4.8,159.9 10.9,166.1L128.3,48.7Z" style="fill:rgb(49,151,214);fill-rule:nonzero;"/>
    </g>
</svg>
